<svg xmlns="http://www.w3.org/2000/svg" width="340" height="400" viewBox="0 0 340 400">
  <defs>
    <style>text { font-family: -apple-system, BlinkMacSystemFont, 'Segoe UI', Helvetica, Arial, sans-serif; }</style>
    <linearGradient id="btnGrad" x1="0" y1="0" x2="0" y2="1">
    <stop offset="0%" stop-color="#ffffff" stop-opacity="0.12"/>
    <stop offset="100%" stop-color="#000000" stop-opacity="0.08"/>
  </linearGradient>
  </defs>
  <rect x="0" y="0" width="340" height="400" rx="14" fill="#08080f"  />
  <rect x="4" y="4" width="332" height="392" rx="12" fill="#0f0f1a"  />
  <path d="M16,4 H324 A12,12 0 0 1 336,16 V50 H4 V16 A12,12 0 0 1 16,4 Z" fill="#1a1a2e" />
  <line x1="4" y1="50" x2="336" y2="50" stroke="#2d2d4a" stroke-width="1" />
  <path d="M20,19 L26,27 L20,35 L14,27 Z" fill="#7c3aed"/>
  <text x="36" y="34" fill="#e2e8f0" font-size="14" font-weight="600" text-anchor="start" >Thought Tidy</text>
  <circle cx="294" cy="27" r="4" fill="none" stroke="#94a3b8" stroke-width="1.5"/>
  <circle cx="294" cy="27" r="8" fill="none" stroke="#94a3b8" stroke-width="1.5" stroke-dasharray="4 2.5"/>
  <line x1="314" y1="23" x2="326" y2="23" stroke="#94a3b8" stroke-width="1.5" stroke-linecap="round"/>
  <line x1="314" y1="27" x2="326" y2="27" stroke="#94a3b8" stroke-width="1.5" stroke-linecap="round"/>
  <line x1="314" y1="31" x2="326" y2="31" stroke="#94a3b8" stroke-width="1.5" stroke-linecap="round"/>
  <rect x="14" y="60" width="312" height="30" rx="7" fill="#16213e" stroke="#2d2d4a" stroke-width="1" />
  <text x="170" y="80" fill="#94a3b8" font-size="11" font-weight="normal" text-anchor="middle" >▶  Process Selected Text</text>
  <text x="14" y="112" fill="#4a5568" font-size="9" font-weight="600" text-anchor="start" >PASTE OR TYPE TEXT</text>
  <rect x="14" y="120" width="312" height="90" rx="7" fill="#16213e" stroke="#2d2d4a" stroke-width="1" />
  <text x="22" y="140" fill="#94a3b8" font-size="11" font-weight="normal" text-anchor="start" >need to talk to client about the</text>
  <text x="22" y="158" fill="#94a3b8" font-size="11" font-weight="normal" text-anchor="start" >deadline moving it back 2 weeks</text>
  <text x="22" y="176" fill="#94a3b8" font-size="11" font-weight="normal" text-anchor="start" >cause the dev had a issue with the</text>
  <text x="22" y="194" fill="#94a3b8" font-size="11" font-weight="normal" text-anchor="start" >auth thing and scope changed…</text>
  <text x="14" y="232" fill="#4a5568" font-size="9" font-weight="600" text-anchor="start" >ACTION</text>
  <rect x="14" y="240" width="312" height="32" rx="7" fill="#16213e" stroke="#2d2d4a" stroke-width="1" />
  <text x="24" y="261" fill="#e2e8f0" font-size="12" font-weight="normal" text-anchor="start" >Brain Dump → Clear Text</text>
  <text x="316" y="261" fill="#94a3b8" font-size="12" font-weight="normal" text-anchor="start" >▾</text>
  <text x="14" y="294" fill="#4a5568" font-size="9" font-weight="600" text-anchor="start" >AUDIENCE</text>
  <rect x="14" y="302" width="312" height="32" rx="7" fill="#16213e" stroke="#2d2d4a" stroke-width="1" />
  <text x="24" y="323" fill="#4a5568" font-size="11" font-weight="normal" text-anchor="start" >— their knowledge level —</text>
  <text x="316" y="323" fill="#94a3b8" font-size="12" font-weight="normal" text-anchor="start" >▾</text>
  <rect x="14" y="348" width="312" height="38" rx="9" fill="#7c3aed"  />
  <rect x="14" y="348" width="312" height="38" rx="9" fill="url(#btnGrad)"/>
  <path d="M148,366 L148,380 L158,373" fill="#ffffff"/>
  <text x="179" y="376" fill="#ffffff" font-size="14" font-weight="600" text-anchor="middle" >Run</text>
</svg>