<svg xmlns="http://www.w3.org/2000/svg" width="880" height="290" viewBox="0 0 880 290">
  <defs>
    <style>text { font-family: -apple-system, BlinkMacSystemFont, 'Segoe UI', Helvetica, Arial, sans-serif; }</style>
    
  </defs>
  <rect x="0" y="0" width="880" height="290" rx="12" fill="#0f0f1a"  />
  <text x="440" y="26" fill="#94a3b8" font-size="12" font-weight="normal" text-anchor="middle" >Settings — everything in one place</text>
  <rect x="24" y="38" width="196" height="90" rx="9" fill="#1a1a2e" stroke="#2d2d4a" stroke-width="1" />
  <circle cx="46" cy="66" r="14" fill="#4c1d95" opacity="0.5"/>
  <rect x="38" y="58" width="16" height="16" rx="3" fill="none" stroke="#a78bfa" stroke-width="1.5"/>
  <rect x="42" y="62" width="8" height="8" rx="1" fill="#a78bfa" opacity="0.6"/>
  <line x1="38" y1="62" x2="34" y2="62" stroke="#a78bfa" stroke-width="1.2"/>
  <line x1="38" y1="70" x2="34" y2="70" stroke="#a78bfa" stroke-width="1.2"/>
  <line x1="54" y1="62" x2="58" y2="62" stroke="#a78bfa" stroke-width="1.2"/>
  <line x1="54" y1="70" x2="58" y2="70" stroke="#a78bfa" stroke-width="1.2"/>
  <text x="68" y="62" fill="#e2e8f0" font-size="12" font-weight="600" text-anchor="start" >AI Providers</text>
  <text x="68" y="78" fill="#94a3b8" font-size="10" font-weight="normal" text-anchor="start" >Add OpenAI, Gemini, or</text>
  <text x="68" y="91" fill="#94a3b8" font-size="10" font-weight="normal" text-anchor="start" >Claude Ollama</text>
  <rect x="236" y="38" width="196" height="90" rx="9" fill="#1a1a2e" stroke="#2d2d4a" stroke-width="1" />
  <circle cx="258" cy="66" r="14" fill="#4c1d95" opacity="0.5"/>
  <circle cx="258" cy="60" r="5" fill="none" stroke="#a78bfa" stroke-width="1.5"/>
  <path d="M249,78 C249,70 267,70 267,78" fill="none" stroke="#a78bfa" stroke-width="1.5"/>
  <text x="280" y="62" fill="#e2e8f0" font-size="12" font-weight="600" text-anchor="start" >Your Profile</text>
  <text x="280" y="78" fill="#94a3b8" font-size="10" font-weight="normal" text-anchor="start" >Sound Like Me — your</text>
  <text x="280" y="91" fill="#94a3b8" font-size="10" font-weight="normal" text-anchor="start" >name, role, style</text>
  <rect x="448" y="38" width="196" height="90" rx="9" fill="#1a1a2e" stroke="#2d2d4a" stroke-width="1" />
  <circle cx="470" cy="66" r="14" fill="#4c1d95" opacity="0.5"/>
  <line x1="461" y1="60" x2="479" y2="60" stroke="#a78bfa" stroke-width="1.5" stroke-linecap="round"/>
  <line x1="461" y1="66" x2="479" y2="66" stroke="#a78bfa" stroke-width="1.5" stroke-linecap="round"/>
  <line x1="461" y1="72" x2="474" y2="72" stroke="#a78bfa" stroke-width="1.5" stroke-linecap="round"/>
  <circle cx="457" cy="60" r="1.5" fill="#a78bfa"/>
  <circle cx="457" cy="66" r="1.5" fill="#a78bfa"/>
  <circle cx="457" cy="72" r="1.5" fill="#a78bfa"/>
  <text x="492" y="62" fill="#e2e8f0" font-size="12" font-weight="600" text-anchor="start" >My Actions</text>
  <text x="492" y="78" fill="#94a3b8" font-size="10" font-weight="normal" text-anchor="start" >Reorder, rename, add</text>
  <text x="492" y="91" fill="#94a3b8" font-size="10" font-weight="normal" text-anchor="start" >custom prompts</text>
  <rect x="660" y="38" width="196" height="90" rx="9" fill="#1a1a2e" stroke="#2d2d4a" stroke-width="1" />
  <circle cx="682" cy="66" r="14" fill="#4c1d95" opacity="0.5"/>
  <circle cx="682" cy="66" r="10" fill="none" stroke="#a78bfa" stroke-width="1.5"/>
  <line x1="682" y1="66" x2="682" y2="60" stroke="#a78bfa" stroke-width="1.5" stroke-linecap="round"/>
  <line x1="682" y1="66" x2="687" y2="69" stroke="#a78bfa" stroke-width="1.5" stroke-linecap="round"/>
  <text x="704" y="62" fill="#e2e8f0" font-size="12" font-weight="600" text-anchor="start" >History</text>
  <text x="704" y="78" fill="#94a3b8" font-size="10" font-weight="normal" text-anchor="start" >Full log — search, PIN</text>
  <text x="704" y="91" fill="#94a3b8" font-size="10" font-weight="normal" text-anchor="start" >filter, lock</text>
  <rect x="24" y="142" width="196" height="90" rx="9" fill="#1a1a2e" stroke="#2d2d4a" stroke-width="1" />
  <circle cx="46" cy="170" r="14" fill="#4c1d95" opacity="0.5"/>
  <rect x="37" y="168" width="18" height="12" rx="2" fill="none" stroke="#a78bfa" stroke-width="1.5"/>
  <line x1="46" y1="161" x2="46" y2="168" stroke="#a78bfa" stroke-width="1.5" stroke-linecap="round"/>
  <path d="M42,162 L46,157 L50,162" fill="none" stroke="#a78bfa" stroke-width="1.5" stroke-linecap="round" stroke-linejoin="round"/>
  <text x="68" y="166" fill="#e2e8f0" font-size="12" font-weight="600" text-anchor="start" >Export / Import</text>
  <text x="68" y="182" fill="#94a3b8" font-size="10" font-weight="normal" text-anchor="start" >Back up or restore as</text>
  <text x="68" y="195" fill="#94a3b8" font-size="10" font-weight="normal" text-anchor="start" >.ttbackup file</text>
  <rect x="236" y="142" width="196" height="90" rx="9" fill="#1a1a2e" stroke="#2d2d4a" stroke-width="1" />
  <circle cx="258" cy="170" r="14" fill="#4c1d95" opacity="0.5"/>
  <path d="M258,160 A10,10 0 1 0 268,170 A7,7 0 1 1 258,160 Z" fill="#a78bfa"/>
  <text x="280" y="166" fill="#e2e8f0" font-size="12" font-weight="600" text-anchor="start" >Appearance</text>
  <text x="280" y="182" fill="#94a3b8" font-size="10" font-weight="normal" text-anchor="start" >Dark / light / follow</text>
  <text x="280" y="195" fill="#94a3b8" font-size="10" font-weight="normal" text-anchor="start" >system theme</text>
  <rect x="448" y="142" width="196" height="90" rx="9" fill="#1a1a2e" stroke="#2d2d4a" stroke-width="1" />
  <circle cx="470" cy="170" r="14" fill="#4c1d95" opacity="0.5"/>
  <path d="M478,166 A8,8 0 1 0 478,174" fill="none" stroke="#a78bfa" stroke-width="1.5" stroke-linecap="round"/>
  <path d="M475,162 L479,166 L483,163" fill="none" stroke="#a78bfa" stroke-width="1.5" stroke-linecap="round" stroke-linejoin="round"/>
  <text x="492" y="166" fill="#e2e8f0" font-size="12" font-weight="600" text-anchor="start" >Desktop Sync</text>
  <text x="492" y="182" fill="#94a3b8" font-size="10" font-weight="normal" text-anchor="start" >Sync settings with</text>
  <text x="492" y="195" fill="#94a3b8" font-size="10" font-weight="normal" text-anchor="start" >browser extension</text>
  <rect x="660" y="142" width="196" height="90" rx="9" fill="#1a1a2e" stroke="#2d2d4a" stroke-width="1" />
  <circle cx="682" cy="170" r="14" fill="#4c1d95" opacity="0.5"/>
  <circle cx="679" cy="170" r="6" fill="none" stroke="#a78bfa" stroke-width="1.5"/>
  <line x1="685" y1="170" x2="694" y2="170" stroke="#a78bfa" stroke-width="1.5" stroke-linecap="round"/>
  <line x1="691" y1="170" x2="691" y2="174" stroke="#a78bfa" stroke-width="1.5" stroke-linecap="round"/>
  <line x1="694" y1="170" x2="694" y2="174" stroke="#a78bfa" stroke-width="1.5" stroke-linecap="round"/>
  <text x="704" y="166" fill="#e2e8f0" font-size="12" font-weight="600" text-anchor="start" >Pro License</text>
  <text x="704" y="182" fill="#94a3b8" font-size="10" font-weight="normal" text-anchor="start" >Activate with email +</text>
  <text x="704" y="195" fill="#94a3b8" font-size="10" font-weight="normal" text-anchor="start" >license key</text>
</svg>