<svg xmlns="http://www.w3.org/2000/svg" width="880" height="210" viewBox="0 0 880 210">
  <defs>
    <style>text { font-family: -apple-system, BlinkMacSystemFont, 'Segoe UI', Helvetica, Arial, sans-serif; }</style>
    
  </defs>
  <rect x="0" y="0" width="880" height="210" rx="12" fill="#0f0f1a"  />
  <rect x="40" y="24" width="240" height="162" rx="10" fill="#1a1a2e" stroke="#2d2d4a" stroke-width="1" />
  <text x="160" y="42" fill="#e2e8f0" font-size="12" font-weight="600" text-anchor="middle" >Open from anywhere</text>
  <rect x="52" y="68" width="216" height="36" rx="6" fill="#16213e" stroke="#2d2d4a" stroke-width="1" />
  <text x="64" y="80" fill="#4a5568" font-size="9" font-weight="normal" text-anchor="start" >Windows tray  /  Mac menu bar</text>
  <path d="M240,77 L247,86 L240,95 L233,86 Z" fill="#7c3aed"/>
  <rect x="52" y="116" width="216" height="26" rx="6" fill="#4c1d95"  />
  <text x="160" y="134" fill="#a78bfa" font-size="10" font-weight="normal" text-anchor="middle" >Ctrl+Shift+Space  from any app</text>
  <text x="160" y="162" fill="#4a5568" font-size="10" font-weight="normal" text-anchor="middle" >No need to switch windows</text>
  <line x1="284" y1="105" x2="310" y2="105" stroke="#4a5568" stroke-width="1.5"/>
  <path d="M309,100 L316,105 L309,110" fill="#4a5568"/>
  <rect x="320" y="24" width="240" height="162" rx="10" fill="#1a1a2e" stroke="#7c3aed" stroke-width="1.5" />
  <text x="440" y="42" fill="#a78bfa" font-size="12" font-weight="600" text-anchor="middle" >Paste, pick, run</text>
  <rect x="332" y="64" width="216" height="26" rx="5" fill="#16213e" stroke="#2d2d4a" stroke-width="1" />
  <text x="344" y="81" fill="#4a5568" font-size="10" font-weight="normal" text-anchor="start" >Your text goes here...</text>
  <rect x="332" y="98" width="216" height="24" rx="5" fill="#16213e" stroke="#2d2d4a" stroke-width="1" />
  <text x="344" y="114" fill="#e2e8f0" font-size="10" font-weight="normal" text-anchor="start" >Brain Dump → Clear Text  ▾</text>
  <rect x="332" y="130" width="216" height="28" rx="7" fill="#7c3aed"  />
  <text x="440" y="149" fill="#ffffff" font-size="12" font-weight="600" text-anchor="middle" >Run</text>
  <line x1="564" y1="105" x2="590" y2="105" stroke="#4a5568" stroke-width="1.5"/>
  <path d="M589,100 L596,105 L589,110" fill="#4a5568"/>
  <rect x="600" y="24" width="240" height="162" rx="10" fill="#1a1a2e" stroke="#2d2d4a" stroke-width="1" />
  <text x="720" y="42" fill="#e2e8f0" font-size="12" font-weight="600" text-anchor="middle" >Get the result</text>
  <rect x="612" y="64" width="216" height="76" rx="7" fill="#16213e" stroke="#10b981" stroke-width="1.5" />
  <text x="622" y="82" fill="#e2e8f0" font-size="10" font-weight="normal" text-anchor="start" >I wanted to flag a couple</text>
  <text x="622" y="98" fill="#e2e8f0" font-size="10" font-weight="normal" text-anchor="start" >of updates on our timeline.</text>
  <text x="622" y="130" fill="#e2e8f0" font-size="10" font-weight="normal" text-anchor="start" >Due to a technical issue...</text>
  <rect x="612" y="148" width="102" height="26" rx="6" fill="#7c3aed"  />
  <text x="663" y="165" fill="#ffffff" font-size="10" font-weight="600" text-anchor="middle" >Replace</text>
  <rect x="720" y="148" width="102" height="26" rx="6" fill="#16213e" stroke="#2d2d4a" stroke-width="1" />
  <text x="771" y="165" fill="#94a3b8" font-size="10" font-weight="normal" text-anchor="middle" >Copy</text>
</svg>