<svg xmlns="http://www.w3.org/2000/svg" viewBox="0 0 128 128">
  <defs>
    <filter id="soft" x="-30%" y="-30%" width="160%" height="160%">
      <feGaussianBlur stdDeviation="3.5"/>
    </filter>
    <linearGradient id="divider" x1="0" x2="0" y1="0" y2="1">
      <stop offset="0%"   stop-color="#313244" stop-opacity="0"/>
      <stop offset="50%"  stop-color="#313244" stop-opacity="1"/>
      <stop offset="100%" stop-color="#313244" stop-opacity="0"/>
    </linearGradient>
  </defs>

  <!-- Background -->
  <rect width="128" height="128" rx="22" fill="#1e1e2e"/>

  <!-- LEFT — blurry lines (unclear text) -->
  <g filter="url(#soft)" opacity="0.55">
    <rect x="10" y="36" width="46" height="8" rx="4" fill="#89b4fa"/>
    <rect x="10" y="52" width="34" height="8" rx="4" fill="#89b4fa"/>
    <rect x="10" y="68" width="42" height="8" rx="4" fill="#89b4fa"/>
    <rect x="10" y="84" width="28" height="8" rx="4" fill="#89b4fa"/>
  </g>

  <!-- Divider -->
  <rect x="62" y="24" width="1" height="80" fill="url(#divider)"/>

  <!-- Arrow -->
  <g stroke="#6c7086" stroke-width="2.5" stroke-linecap="round" stroke-linejoin="round" fill="none">
    <line x1="54" y1="64" x2="74" y2="64"/>
    <polyline points="69,58 75,64 69,70"/>
  </g>

  <!-- RIGHT — crisp lines (clear text) -->
  <rect x="80" y="36" width="38" height="6" rx="3" fill="#89b4fa"/>
  <rect x="80" y="52" width="28" height="6" rx="3" fill="#89b4fa"/>
  <rect x="80" y="68" width="34" height="6" rx="3" fill="#89b4fa"/>
  <rect x="80" y="84" width="22" height="6" rx="3" fill="#89b4fa"/>
</svg>
